<svg xmlns="http://www.w3.org/2000/svg" width="960" height="500"><g transform="translate(60, 20)"><g><g transform="translate(0, 420)" fill="none" font-size="10" font-family="sans-serif" text-anchor="middle"><path class="domain" stroke="#000" d="M0.5000,5V0.5000H840.5000V5"></path><g class="tick" opacity="1" transform="translate(0.5,0)"><line stroke="#000" y2="5"></line><text fill="#000" y="10" dy="0.71em">10,000</text></g><g class="tick" opacity="1" transform="translate(72.5,0)"><line stroke="#000" y2="5"></line><text fill="#000" y="10" dy="0.71em">20,000</text></g><g class="tick" opacity="1" transform="translate(145.5,0)"><line stroke="#000" y2="5"></line><text fill="#000" y="10" dy="0.71em">30,000</text></g><g class="tick" opacity="1" transform="translate(217.5,0)"><line stroke="#000" y2="5"></line><text fill="#000" y="10" dy="0.71em">40,000</text></g><g class="tick" opacity="1" transform="translate(290.5,0)"><line stroke="#000" y2="5"></line><text fill="#000" y="10" dy="0.71em">50,000</text></g><g class="tick" opacity="1" transform="translate(362.5,0)"><line stroke="#000" y2="5"></line><text fill="#000" y="10" dy="0.71em">60,000</text></g><g class="tick" opacity="1" transform="translate(434.5,0)"><line stroke="#000" y2="5"></line><text fill="#000" y="10" dy="0.71em">70,000</text></g><g class="tick" opacity="1" transform="translate(507.5,0)"><line stroke="#000" y2="5"></line><text fill="#000" y="10" dy="0.71em">80,000</text></g><g class="tick" opacity="1" transform="translate(579.5,0)"><line stroke="#000" y2="5"></line><text fill="#000" y="10" dy="0.71em">90,000</text></g><g class="tick" opacity="1" transform="translate(652.5,0)"><line stroke="#000" y2="5"></line><text fill="#000" y="10" dy="0.71em">100,000</text></g><g class="tick" opacity="1" transform="translate(724.5,0)"><line stroke="#000" y2="5"></line><text fill="#000" y="10" dy="0.71em">110,000</text></g><g class="tick" opacity="1" transform="translate(797.5,0)"><line stroke="#000" y2="5"></line><text fill="#000" y="10" dy="0.71em">120,000</text></g></g><g fill="none" font-size="10" font-family="sans-serif" text-anchor="end"><path class="domain" stroke="#000" d="M-5,420.5000H0.5000V0.5000H-5"></path><g class="tick" opacity="1" transform="translate(0,420.5)"><line stroke="#000" x2="-5"></line><text fill="#000" x="-10" dy="0.32em">0</text></g><g class="tick" opacity="1" transform="translate(0,387.5)"><line stroke="#000" x2="-5"></line><text fill="#000" x="-10" dy="0.32em">100</text></g><g class="tick" opacity="1" transform="translate(0,354.5)"><line stroke="#000" x2="-5"></line><text fill="#000" x="-10" dy="0.32em">200</text></g><g class="tick" opacity="1" transform="translate(0,321.5)"><line stroke="#000" x2="-5"></line><text fill="#000" x="-10" dy="0.32em">300</text></g><g class="tick" opacity="1" transform="translate(0,288.5)"><line stroke="#000" x2="-5"></line><text fill="#000" x="-10" dy="0.32em">400</text></g><g class="tick" opacity="1" transform="translate(0,255.5)"><line stroke="#000" x2="-5"></line><text fill="#000" x="-10" dy="0.32em">500</text></g><g class="tick" opacity="1" transform="translate(0,222.5)"><line stroke="#000" x2="-5"></line><text fill="#000" x="-10" dy="0.32em">600</text></g><g class="tick" opacity="1" transform="translate(0,189.5)"><line stroke="#000" x2="-5"></line><text fill="#000" x="-10" dy="0.32em">700</text></g><g class="tick" opacity="1" transform="translate(0,156.5)"><line stroke="#000" x2="-5"></line><text fill="#000" x="-10" dy="0.32em">800</text></g><g class="tick" opacity="1" transform="translate(0,123.5)"><line stroke="#000" x2="-5"></line><text fill="#000" x="-10" dy="0.32em">900</text></g><g class="tick" opacity="1" transform="translate(0,90.5)"><line stroke="#000" x2="-5"></line><text fill="#000" x="-10" dy="0.32em">1,000</text></g><g class="tick" opacity="1" transform="translate(0,57.5)"><line stroke="#000" x2="-5"></line><text fill="#000" x="-10" dy="0.32em">1,100</text></g><g class="tick" opacity="1" transform="translate(0,23.5)"><line stroke="#000" x2="-5"></line><text fill="#000" x="-10" dy="0.32em">1,200</text></g></g><g fill="none" stroke-width="2"><path stroke="steelblue" d="M0,420L12,420C24,420,48,420,72.1667,420C96.3333,420,120.6667,420,144.8333,420C169,420,193,420,211,420C229,420,241,420,249.5000,420C258,420,263,420,266.6667,420C270.3333,420,272.6667,420,276.3333,420C280,420,285,420,299.5000,420C314,420,338,420,374.1667,420C410.3333,420,458.6667,420,507,420C555.3333,420,603.6667,420,652,420C700.3333,420,748.6667,420,775.1667,419.5000C801.6667,419,806.3333,418,811.1667,407C816,396,821,375,825.8333,333.8333C830.6667,292.6667,835.3333,231.3333,837.6667,200.6667L840,170"></path></g><circle cx="340" cy="250" r="6" style="fill: steelblue;"></circle><text x="360" y="255" style="font-size: 15px; font-family: 'Open Sans', Arial, sans-serif;" alignment-baseline="middle">Quarkus - IO Thread</text><g fill="none" stroke-width="2"><path stroke="Red" d="M0,420L12,420C24,420,48,420,72.1667,420C96.3333,420,120.6667,420,144.8333,420C169,420,193,420,207.5000,419.8333C222,419.6667,227,419.3333,231.8333,418.8333C236.6667,418.3333,241.3333,417.6667,246.1667,415C251,412.3333,256,407.6667,260.8333,338.1667C265.6667,268.6667,270.3333,134.3333,272.6667,67.1667L275,0"></path></g><circle cx="340" cy="280" r="6" style="fill: Red;"></circle><text x="360" y="285" style="font-size: 15px; font-family: 'Open Sans', Arial, sans-serif;" alignment-baseline="middle">Quarkus - Worker Pool</text><text transform="rotate(-90)" y="-60" x="-210" dy="1em" style="text-anchor: middle; font-family: 'Open Sans', Arial, sans-serif;">Mean Response Time (ms)</text><text transform="translate(420 ,470)" style="text-anchor: middle; font-family: 'Open Sans', Arial, sans-serif;">Throughput (req/sec)</text></g></g></svg>