<svg xmlns="http://www.w3.org/2000/svg" width="960" height="500"><g transform="translate(60, 20)"><g><g transform="translate(0, 420)" fill="none" font-size="10" font-family="sans-serif" text-anchor="middle"><path class="domain" stroke="#000" d="M0.5000,5V0.5000H840.5000V5"></path><g class="tick" opacity="1" transform="translate(0.5,0)"><line stroke="#000" y2="5"></line><text fill="#000" y="10" dy="0.71em">10,000</text></g><g class="tick" opacity="1" transform="translate(72.5,0)"><line stroke="#000" y2="5"></line><text fill="#000" y="10" dy="0.71em">20,000</text></g><g class="tick" opacity="1" transform="translate(145.5,0)"><line stroke="#000" y2="5"></line><text fill="#000" y="10" dy="0.71em">30,000</text></g><g class="tick" opacity="1" transform="translate(217.5,0)"><line stroke="#000" y2="5"></line><text fill="#000" y="10" dy="0.71em">40,000</text></g><g class="tick" opacity="1" transform="translate(290.5,0)"><line stroke="#000" y2="5"></line><text fill="#000" y="10" dy="0.71em">50,000</text></g><g class="tick" opacity="1" transform="translate(362.5,0)"><line stroke="#000" y2="5"></line><text fill="#000" y="10" dy="0.71em">60,000</text></g><g class="tick" opacity="1" transform="translate(434.5,0)"><line stroke="#000" y2="5"></line><text fill="#000" y="10" dy="0.71em">70,000</text></g><g class="tick" opacity="1" transform="translate(507.5,0)"><line stroke="#000" y2="5"></line><text fill="#000" y="10" dy="0.71em">80,000</text></g><g class="tick" opacity="1" transform="translate(579.5,0)"><line stroke="#000" y2="5"></line><text fill="#000" y="10" dy="0.71em">90,000</text></g><g class="tick" opacity="1" transform="translate(652.5,0)"><line stroke="#000" y2="5"></line><text fill="#000" y="10" dy="0.71em">100,000</text></g><g class="tick" opacity="1" transform="translate(724.5,0)"><line stroke="#000" y2="5"></line><text fill="#000" y="10" dy="0.71em">110,000</text></g><g class="tick" opacity="1" transform="translate(797.5,0)"><line stroke="#000" y2="5"></line><text fill="#000" y="10" dy="0.71em">120,000</text></g></g><g fill="none" font-size="10" font-family="sans-serif" text-anchor="end"><path class="domain" stroke="#000" d="M-5,420.5000H0.5000V0.5000H-5"></path><g class="tick" opacity="1" transform="translate(0,420.5)"><line stroke="#000" x2="-5"></line><text fill="#000" x="-10" dy="0.32em">0</text></g><g class="tick" opacity="1" transform="translate(0,378.5)"><line stroke="#000" x2="-5"></line><text fill="#000" x="-10" dy="0.32em">10</text></g><g class="tick" opacity="1" transform="translate(0,336.5)"><line stroke="#000" x2="-5"></line><text fill="#000" x="-10" dy="0.32em">20</text></g><g class="tick" opacity="1" transform="translate(0,294.5)"><line stroke="#000" x2="-5"></line><text fill="#000" x="-10" dy="0.32em">30</text></g><g class="tick" opacity="1" transform="translate(0,252.5)"><line stroke="#000" x2="-5"></line><text fill="#000" x="-10" dy="0.32em">40</text></g><g class="tick" opacity="1" transform="translate(0,210.5)"><line stroke="#000" x2="-5"></line><text fill="#000" x="-10" dy="0.32em">50</text></g><g class="tick" opacity="1" transform="translate(0,168.5)"><line stroke="#000" x2="-5"></line><text fill="#000" x="-10" dy="0.32em">60</text></g><g class="tick" opacity="1" transform="translate(0,126.5)"><line stroke="#000" x2="-5"></line><text fill="#000" x="-10" dy="0.32em">70</text></g><g class="tick" opacity="1" transform="translate(0,84.5)"><line stroke="#000" x2="-5"></line><text fill="#000" x="-10" dy="0.32em">80</text></g><g class="tick" opacity="1" transform="translate(0,42.5)"><line stroke="#000" x2="-5"></line><text fill="#000" x="-10" dy="0.32em">90</text></g><g class="tick" opacity="1" transform="translate(0,0.5)"><line stroke="#000" x2="-5"></line><text fill="#000" x="-10" dy="0.32em">100</text></g></g><g fill="none" stroke-width="2"><path stroke="Red" d="M0,322L12,305.5000C24,289,48,256,72.1667,226.6667C96.3333,197.3333,120.6667,171.6667,144.8333,139.3333C169,107,193,68,207.5000,45.8333C222,23.6667,227,18.3333,231.8333,15.3333C236.6667,12.3333,241.3333,11.6667,246.1667,11.5000C251,11.3333,256,11.6667,260.8333,11.8333C265.6667,12,270.3333,12,272.6667,12L275,12"></path></g><circle cx="640" cy="250" r="6" style="fill: Red;"></circle><text x="660" y="255" style="font-size: 15px; font-family: 'Open Sans', Arial, sans-serif;" alignment-baseline="middle">Quarkus - Work Pool</text><path class="area-translucent" fill="Red" d="M0,322L12,305.5000C24,289,48,256,72.1667,226.6667C96.3333,197.3333,120.6667,171.6667,144.8333,139.3333C169,107,193,68,207.5000,45.8333C222,23.6667,227,18.3333,231.8333,15.3333C236.6667,12.3333,241.3333,11.6667,246.1667,11.5000C251,11.3333,256,11.6667,260.8333,11.8333C265.6667,12,270.3333,12,272.6667,12L275,12L275,420L272.6667,420C270.3333,420,265.6667,420,260.8333,420C256,420,251,420,246.1667,420C241.3333,420,236.6667,420,231.8333,420C227,420,222,420,207.5000,420C193,420,169,420,144.8333,420C120.6667,420,96.3333,420,72.1667,420C48,420,24,420,12,420L0,420Z"></path><g fill="none" stroke-width="2"><path stroke="steelblue" d="M0,387L12,382.3333C24,377.6667,48,368.3333,72.1667,358C96.3333,347.6667,120.6667,336.3333,144.8333,324C169,311.6667,193,298.3333,211,289C229,279.6667,241,274.3333,249.5000,270.6667C258,267,263,265,266.6667,263C270.3333,261,272.6667,259,276.3333,257.8333C280,256.6667,285,256.3333,299.5000,251C314,245.6667,338,235.3333,374.1667,216.6667C410.3333,198,458.6667,171,507,149C555.3333,127,603.6667,110,652,91.5000C700.3333,73,748.6667,53,775.1667,39.3333C801.6667,25.6667,806.3333,18.3333,811.1667,14.6667C816,11,821,11,825.8333,11.1667C830.6667,11.3333,835.3333,11.6667,837.6667,11.8333L840,12"></path></g><circle cx="640" cy="280" r="6" style="fill: steelblue;"></circle><text x="660" y="285" style="font-size: 15px; font-family: 'Open Sans', Arial, sans-serif;" alignment-baseline="middle">Quarkus - Event Loop</text><path class="area-translucent" fill="steelblue" d="M0,387L12,382.3333C24,377.6667,48,368.3333,72.1667,358C96.3333,347.6667,120.6667,336.3333,144.8333,324C169,311.6667,193,298.3333,211,289C229,279.6667,241,274.3333,249.5000,270.6667C258,267,263,265,266.6667,263C270.3333,261,272.6667,259,276.3333,257.8333C280,256.6667,285,256.3333,299.5000,251C314,245.6667,338,235.3333,374.1667,216.6667C410.3333,198,458.6667,171,507,149C555.3333,127,603.6667,110,652,91.5000C700.3333,73,748.6667,53,775.1667,39.3333C801.6667,25.6667,806.3333,18.3333,811.1667,14.6667C816,11,821,11,825.8333,11.1667C830.6667,11.3333,835.3333,11.6667,837.6667,11.8333L840,12L840,420L837.6667,420C835.3333,420,830.6667,420,825.8333,420C821,420,816,420,811.1667,420C806.3333,420,801.6667,420,775.1667,420C748.6667,420,700.3333,420,652,420C603.6667,420,555.3333,420,507,420C458.6667,420,410.3333,420,374.1667,420C338,420,314,420,299.5000,420C285,420,280,420,276.3333,420C272.6667,420,270.3333,420,266.6667,420C263,420,258,420,249.5000,420C241,420,229,420,211,420C193,420,169,420,144.8333,420C120.6667,420,96.3333,420,72.1667,420C48,420,24,420,12,420L0,420Z"></path><text transform="rotate(-90)" y="-60" x="-210" dy="1em" style="text-anchor: middle; font-family: 'Open Sans', Arial, sans-serif;">Mean CPU Utilization (%)</text><text transform="translate(420 ,470)" style="text-anchor: middle; font-family: 'Open Sans', Arial, sans-serif;">Throughput (req/sec)</text></g></g></svg>